# xmcd CD database file
#
# Track frame offsets:
#	150
#	16694
#	29833
#	45029
#	63668
#	78900
#	106789
#	124475
#	144150
#	164038
#	187320
#	202813
#
# Disc length: 2950 seconds
#
# Revision: 2
# Processed by: cddbd v1.5.2PL0 Copyright (c) Steve Scherf et al.
# Submitted via: CDex 1.70beta3
#
DISCID=9f0b840c
DTITLE=ねごと - ex Negoto
DYEAR=2011
DGENRE=Rock
TTITLE0=サイダーの海
TTITLE1=ループ
TTITLE2=カロン
TTITLE3=ビーサイド
TTITLE4=メルシールー
TTITLE5=ふわりのこと
TTITLE6=七夕
TTITLE7=week...end
TTITLE8=季節
TTITLE9=AO
TTITLE10=揺れる
TTITLE11=インストゥルメンタル
EXTD=YEAR: 2011
EXTT0=
EXTT1=
EXTT2=
EXTT3=
EXTT4=
EXTT5=
EXTT6=
EXTT7=
EXTT8=
EXTT9=
EXTT10=
EXTT11=
PLAYORDER=
